HIERARCHY
ROOT Hips
{
	OFFSET -3.958830 18.904000 13.208200
	CHANNELS 6 Xposition Yposition Zposition Zrotation Yrotation Xrotation 
	JOINT LHipJoint
	{
		OFFSET 0.000000 0.000000 0.000000
		CHANNELS 3 Zrotation Yrotation Xrotation
		JOINT LeftUpLeg
		{
			OFFSET 1.800000 -1.400000 0.085000
			CHANNELS 3 Zrotation Yrotation Xrotation
			JOINT LeftLeg
			{
				OFFSET 2.215000 -6.000000 0.000000
				CHANNELS 3 Zrotation Yrotation Xrotation
				JOINT LeftFoot
				{
					OFFSET 2.500000 -6.900000 0.000000
					CHANNELS 3 Zrotation Yrotation Xrotation
					JOINT LeftToeBase
					{
						OFFSET 0.200000 -0.500000 1.950000
						CHANNELS 3 Zrotation Yrotation Xrotation
						End Site
						{
							OFFSET 0.000000 0.000000 0.000000
						}
					}
				}
			}
		}
	}
	JOINT RHipJoint
	{
		OFFSET 0.000000 0.000000 0.000000
		CHANNELS 3 Zrotation Yrotation Xrotation
		JOINT RightUpLeg
		{
			OFFSET -1.800000 -1.400000 0.085000
			CHANNELS 3 Zrotation Yrotation Xrotation
			JOINT RightLeg
			{
				OFFSET -2.215000 -6.000000 0.000000
				CHANNELS 3 Zrotation Yrotation Xrotation
				JOINT RightFoot
				{
					OFFSET -2.500000 -6.900000 0.000000
					CHANNELS 3 Zrotation Yrotation Xrotation
					JOINT RightToeBase
					{
						OFFSET -0.200000 -0.500000 1.950000
						CHANNELS 3 Zrotation Yrotation Xrotation
						End Site
						{
							OFFSET 0.000000 0.000000 0.000000
						}
					}
				}
			}
		}
	}
	JOINT LowerBack
	{
		OFFSET 0.000000 0.000000 0.000000
		CHANNELS 3 Zrotation Yrotation Xrotation
		JOINT Spine
		{
			OFFSET -0.087000 1.940000 -0.288900
			CHANNELS 3 Zrotation Yrotation Xrotation
			JOINT Spine1
			{
				OFFSET 0.000000 1.950000 0.060000
				CHANNELS 3 Zrotation Yrotation Xrotation
				JOINT Neck
				{
					OFFSET 0.000000 0.000000 0.000000
					CHANNELS 3 Zrotation Yrotation Xrotation
					JOINT Neck1
					{
						OFFSET 0.000000 1.600000 0.340000
						CHANNELS 3 Zrotation Yrotation Xrotation
						JOINT Head
						{
							OFFSET 0.000000 1.667000 -0.240000
							CHANNELS 3 Zrotation Yrotation Xrotation
							End Site
							{
								OFFSET 0.000000 0.000000 0.000000
							}
						}
					}
				}
				JOINT LeftShoulder
				{
					OFFSET 0.000000 0.000000 0.000000
					CHANNELS 3 Zrotation Yrotation Xrotation
					JOINT LeftArm
					{
						OFFSET 2.700000 1.550000 -0.730000
						CHANNELS 3 Zrotation Yrotation Xrotation
						JOINT LeftForeArm
						{
							OFFSET 5.450000 0.000000 0.000000
							CHANNELS 3 Zrotation Yrotation Xrotation
							JOINT LeftHand
							{
								OFFSET 3.450000 0.000000 0.000000
								CHANNELS 3 Zrotation Yrotation Xrotation
								JOINT LeftHandIndex1
								{
									OFFSET 0.750000 0.000000 0.000000
									CHANNELS 3 Zrotation Yrotation Xrotation
									End Site
									{
										OFFSET 0.000000 0.000000 0.000000
									}
								}
							}
						}
					}
				}
				JOINT RightShoulder
				{
					OFFSET 0.000000 0.000000 0.000000
					CHANNELS 3 Zrotation Yrotation Xrotation
					JOINT RightArm
					{
						OFFSET -2.700000 1.550000 -0.730000
						CHANNELS 3 Zrotation Yrotation Xrotation
						JOINT RightForeArm
						{
							OFFSET -5.450000 0.000000 0.000000
							CHANNELS 3 Zrotation Yrotation Xrotation
							JOINT RightHand
							{
								OFFSET -3.450000 0.000000 0.000000
								CHANNELS 3 Zrotation Yrotation Xrotation
								JOINT RightHandIndex1
								{
									OFFSET -0.750000 0.000000 0.000000
									CHANNELS 3 Zrotation Yrotation Xrotation
									End Site
									{
										OFFSET 0.000000 0.000000 0.000000
									}
								}
							}
						}
					}
				}
			}
		}
	}
}
MOTION
Frames: 9
Frame Time: 0.016667
0.040750 17.323060 -2.431580 -3.104217 -24.468064 3.232349 -15.187225 13.567527 3.617494 4.125783 -1.102051 -12.742554 -11.701109 4.685253 2.443640 -0.300476 3.693765 3.331110 0.394750 0.218240 0.361710 18.123408 -10.399604 3.087173 -1.015115 0.734633 -8.233936 7.795456 -4.119736 5.991049 -0.422789 -2.978530 3.360209 0.070650 -0.028260 0.216490 -2.996956 -2.846445 -8.305175 13.644509 -1.634522 21.840424 -6.237110 2.054201 3.698158 10.177037 -6.546569 -9.997479 -13.299171 11.031054 46.371765 -12.358830 9.176990 -14.090650 -30.481128 -5.624474 2.629202 -46.465937 4.052485 -7.373176 -16.236031 -20.707501 -0.055668 -3.528116 2.909736 0.560580 -0.044290 0.220880 0.096140 10.234143 15.024285 4.279818 12.229700 15.763339 -10.409260 -71.764947 43.738191 -30.504100 1.793819 -1.069799 -0.057950 0.179800 -0.020270 -0.208040 
0.017230 17.315510 -2.444120 -3.123124 -24.499806 3.304883 -15.209366 13.629644 3.584980 4.333393 -1.151106 -13.655076 -11.560889 4.880643 3.775380 -0.299728 3.660223 3.330423 0.391640 0.214820 0.373940 18.088788 -10.419100 3.087759 -0.692853 0.797809 -8.617029 7.714289 -4.171368 6.710147 -0.417533 -2.939777 3.366374 0.057160 -0.041770 0.223080 -2.887346 -2.903687 -8.301530 12.612116 -1.156563 21.982559 -4.944281 2.240955 3.608816 9.690541 -5.956074 -9.952445 -12.054331 10.434282 46.190975 -12.869130 9.315030 -14.712240 -30.760724 -5.959104 2.709207 -46.456321 4.098323 -7.368823 -16.798703 -20.152802 -0.001967 -3.526703 2.908963 0.559530 -0.051820 0.233420 0.089620 11.607103 15.082231 4.556031 15.543959 15.973258 -10.283736 -81.266474 44.309553 -37.791246 1.798725 -1.016147 -0.046030 0.168780 -0.026560 -0.207060 
-0.004920 17.305870 -2.457630 -3.134662 -24.386360 3.361652 -15.242848 13.735910 3.554919 4.553890 -1.239065 -14.902413 -11.417668 5.186550 5.668326 -0.308638 3.656766 3.317878 0.384260 0.200570 0.373530 18.039120 -10.412668 3.079892 -0.493142 0.921131 -9.083335 7.839475 -4.280574 7.711549 -0.405492 -2.915824 3.377864 0.043020 -0.047640 0.222260 -2.738106 -3.082718 -8.296542 11.447346 -0.791488 22.388630 -3.518418 2.393960 3.189739 9.155255 -5.531662 -9.912398 -11.244863 10.145442 45.861696 -13.161460 9.477730 -15.046690 -31.166038 -5.998151 2.621482 -46.617861 4.273008 -7.489445 -17.299361 -19.932296 0.070350 -3.521606 2.908693 0.565450 -0.057680 0.235460 0.090070 13.201999 14.908425 4.965505 18.936703 15.658553 -9.762520 -92.162620 45.459758 -48.013690 1.813904 -0.949886 -0.046330 0.162250 -0.029270 -0.209260 
-0.029940 17.290400 -2.479520 -2.988233 -24.249718 3.154829 -15.300224 13.875726 3.532326 4.772636 -1.337186 -16.308164 -11.326651 5.625652 8.084271 -0.310823 3.700810 3.272455 0.379660 0.192830 0.370940 17.966633 -10.376711 3.057463 -0.439497 1.058708 -9.475063 8.050270 -4.430916 8.903383 -0.402633 -2.902101 3.374164 0.028930 -0.070120 0.220750 -2.519168 -3.374623 -8.293127 9.806269 -0.316952 23.236084 -1.899119 2.707155 2.658349 8.615479 -5.142023 -9.916615 -10.622018 9.998177 45.789412 -13.194730 9.474680 -15.916500 -31.316041 -5.806438 2.338961 -47.038893 4.164071 -7.608491 -17.996487 -19.688051 0.167014 -3.507499 2.912031 0.582500 -0.080880 0.247830 0.083340 14.579254 14.580026 5.531520 22.782167 15.045615 -8.999470 -103.621848 46.348822 -61.165181 1.889022 -0.942550 -0.040780 0.149210 -0.027970 -0.212110 
-0.050640 17.269570 -2.507380 -2.968690 -24.147830 2.990573 -15.353701 14.017474 3.525756 5.068041 -1.468291 -18.007653 -11.204952 6.145594 10.831249 -0.287198 3.789238 3.209175 0.384070 0.203700 0.361550 17.901860 -10.318782 3.027096 -0.340826 1.255870 -9.984634 8.271326 -4.599256 10.351522 -0.404548 -2.892815 3.370601 0.018630 -0.091140 0.220680 -2.325726 -3.717453 -8.278554 8.432545 -0.004867 24.264097 -0.281919 2.983405 1.962401 8.000103 -5.251803 -9.869780 -11.068868 10.218423 45.481922 -12.922830 9.177930 -16.871740 -31.172906 -5.135240 1.821046 -47.995965 3.782661 -7.623206 -18.497026 -19.024898 0.206363 -3.495729 2.914501 0.589270 -0.108410 0.265100 0.087120 15.778910 14.121174 6.054316 26.457311 14.301348 -7.991773 -114.950964 47.597998 -77.392821 2.015111 -1.038353 -0.021160 0.137100 -0.035150 -0.199990 
-0.074410 17.234090 -2.535310 -3.051056 -23.955181 3.036536 -15.401935 14.112261 3.552040 5.543321 -1.691770 -20.301278 -11.169604 6.833809 14.172314 -0.235052 3.984874 3.107672 0.386380 0.215160 0.345860 17.850622 -10.246979 2.996764 -0.123464 1.530767 -10.726200 8.467736 -4.769839 11.907093 -0.400539 -2.898197 3.369143 0.005570 -0.099750 0.227910 -2.172459 -4.018902 -8.268946 7.238538 0.268544 25.164378 1.310225 3.298242 1.027245 7.309582 -5.247492 -9.637630 -11.194718 10.305460 44.632607 -12.740800 9.060310 -17.168520 -31.086901 -4.218699 1.289187 -48.900752 3.649442 -7.733258 -19.287930 -18.683278 0.331432 -3.492418 2.937750 0.575630 -0.118960 0.273960 0.099870 17.150768 13.265136 6.326974 29.821894 12.982591 -7.130161 -126.289436 49.376529 -96.568174 2.139696 -1.272839 0.005590 0.115330 -0.048920 -0.179780 
-0.101050 17.186990 -2.563130 -3.138067 -23.856775 3.044358 -15.477471 14.171183 3.630359 6.216887 -1.961266 -22.897209 -11.303506 7.758716 18.047442 -0.148241 4.363309 2.935583 0.378980 0.220980 0.319010 17.786602 -10.124751 2.953374 0.056704 1.879086 -11.446947 8.895670 -5.039946 13.730349 -0.403104 -2.956759 3.349214 -0.012260 -0.104880 0.239080 -1.969749 -4.366032 -8.293445 5.722523 0.723731 25.976322 3.231324 3.824259 -0.036972 6.638116 -5.052194 -9.441570 -11.022251 10.222984 44.228864 -12.484010 8.944590 -16.864520 -30.893453 -3.343962 0.901935 -49.999291 3.766693 -7.894451 -20.519373 -18.303142 0.480414 -3.495491 2.966215 0.555750 -0.123000 0.282980 0.112820 18.445568 12.401745 6.508029 32.682826 10.816332 -7.092788 -137.579645 51.889553 -117.996419 2.203439 -1.550863 0.035080 0.088360 -0.058680 -0.155550 
-0.126550 17.138610 -2.591900 -3.371834 -23.848633 2.698286 -15.569073 14.236018 3.743844 7.175711 -2.170839 -25.302192 -11.313315 8.801254 22.165497 -0.042747 4.888266 2.708658 0.394130 0.245900 0.321380 17.719912 -9.949139 2.900179 0.452430 2.130850 -11.599380 9.058509 -5.274608 15.383561 -0.432510 -3.013205 3.326230 -0.024460 -0.140080 0.239460 -1.748158 -4.829256 -8.351395 4.332194 1.091410 27.392915 5.020433 4.449964 -1.229346 6.091590 -5.091116 -9.323786 -11.488002 10.347915 44.522223 -12.086000 8.641180 -17.644950 -30.883998 -2.517749 0.556018 -51.281401 4.051252 -8.254851 -21.109191 -18.162468 0.537422 -3.464204 2.979915 0.564100 -0.157910 0.312500 0.119390 19.684557 11.824579 6.675642 35.029703 8.262698 -7.952079 -149.411755 54.811464 -141.150818 2.198489 -1.757400 0.066210 0.067330 -0.080170 -0.142490 
-0.146640 17.086010 -2.616410 -3.814600 -23.989958 2.168785 -15.657994 14.267810 3.899896 8.446306 -2.326179 -27.478946 -11.467445 9.962573 26.241670 0.066522 5.571407 2.433670 0.402630 0.253590 0.330130 17.666656 -9.743411 2.841690 0.942021 2.386838 -11.451473 9.175428 -5.555129 17.138440 -0.476673 -3.104710 3.290713 -0.039690 -0.176450 0.236570 -1.559854 -5.304409 -8.445821 3.436601 1.328814 29.136033 6.381635 5.119148 -2.541554 5.709860 -5.199649 -9.272836 -12.254530 10.514743 45.346285 -11.912850 8.377900 -18.705960 -31.297390 -1.912334 0.282301 -52.266829 4.638121 -8.739453 -21.253228 -18.171602 0.509974 -3.427108 2.969655 0.595940 -0.197210 0.345900 0.119450 21.004326 11.441760 6.863386 36.787110 5.241617 -9.649114 -162.192033 58.223659 -165.545518 2.150405 -1.823635 0.080000 0.059550 -0.092300 -0.142700 
